<svg id="no-such-pool" width="304" height="255" viewBox="0 0 304 255" fill="none" xmlns="http://www.w3.org/2000/svg">
    <path fill-rule="evenodd" clip-rule="evenodd"
          d="M117.339 2.62675C117.717 2.22671 118.243 2 118.793 2H233C233.63 2 234.222 2.29639 234.6 2.8L246 18H102.82L117.339 2.62675ZM247 184.5V20H101.5V29.9359L112.803 34.0461C113.514 33.3963 114.461 33 115.5 33H152.978L152.994 32.9998L153.009 32.9998L153.02 33H170.497H170.503H195H200H214.5H228.5C230.709 33 232.5 34.7909 232.5 37V173C232.5 175.209 230.709 177 228.5 177H115.5C114.575 177 113.724 176.686 113.046 176.159C112.712 176.798 112.207 177.346 111.57 177.731L104 182.308V184.5C104 185.605 104.895 186.5 106 186.5H245C246.105 186.5 247 185.605 247 184.5ZM215.5 35H228.5C229.605 35 230.5 35.8954 230.5 37V171.22L215.5 132.314V35ZM213.5 35V131.5H136.051V113.5C136.051 112.948 135.603 112.5 135.051 112.5C134.499 112.5 134.051 112.948 134.051 113.5V132.24L113.5 169.149V135.557C115.213 120.73 127.382 113.116 135.582 110.349C137.736 109.622 139.145 107.279 138.378 104.993L133.998 91.9422C134.76 88.5756 136.825 85.7316 139.26 83.7063C141.781 81.6094 144.561 80.5 146.5 80.5C147.052 80.5 147.5 80.0523 147.5 79.5C147.5 73.5873 149.957 69.7576 153.523 67.186C157.145 64.5733 161.959 63.2293 166.656 62.4878C167.005 62.4326 167.3 62.1969 167.43 61.868C168.976 57.9621 172.244 51.888 176.99 46.4581C181.483 41.3183 187.224 36.8403 194 35.2323V35.2547V35.2937V35.3331V35.3732V35.4138V35.4549V35.4966V35.5389V35.5817V35.625V35.6689V35.7133V35.7582V35.8037V35.8497V35.8963V35.9434V35.991V36.0391V36.0878V36.137V36.1867V36.2369V36.2877V36.339V36.3908V36.4431V36.4959V36.5492V36.603V36.6573V36.7122V36.7675V36.8234V36.8797V36.9365V36.9939V37.0517V37.11V37.1688V37.2281V37.2879V37.3481V37.4089V37.4701V37.5318V37.594V37.6567V37.7198V37.7834V37.8475V37.9121V37.9771V38.0426V38.1085V38.1749V38.2418V38.3091V38.3769V38.4451V38.5138V38.5829V38.6525V38.7226V38.793V38.864V38.9353V39.0071V39.0794V39.1521V39.2252V39.2987V39.3727V39.4471V39.522V39.5972V39.6729V39.749V39.8256V39.9025V39.9799V40.0577V40.1359V40.2145V40.2935V40.3729V40.4527V40.533V40.6136V40.6947V40.7761V40.8579V40.9402V41.0228V41.1058V41.1892V41.273V41.3572V41.4418V41.5268V41.6121V41.6978V41.7839V41.8704V41.9572V42.0445V42.132V42.22V42.3083V42.397V42.4861V42.5755V42.6653V42.7554V42.8459V42.9368V43.028V43.1195V43.2114V43.3037V43.3963V43.4892V43.5825V43.6761V43.7701V43.8644V43.959V44.054V44.1493V44.2449V44.3409V44.4372V44.5338V44.6307V44.728V44.8256V44.9234V45.0217V45.1202V45.219V45.3182V45.4176V45.5174V45.6174V45.7178V45.8185V45.9194V46.0207V46.1223V46.2241V46.3263V46.4287V46.5315V46.6345V46.7378V46.8414V46.9453V47.0494V47.1538V47.2585V47.3635V47.4688V47.5743V47.6801V47.7862V47.8925V47.9991V48.106V48.2131V48.3204V48.4281V48.536V48.6441V48.7525V48.8612V48.9701V49.0792V49.1886V49.2982V49.4081V49.5182V49.6285V49.7391V49.8499V49.961V50.0723V50.1838V50.2955V50.4074V50.5196V50.632V50.7447V50.8575V50.9706V51.0838V51.1973V51.311V51.4249V51.539V51.6534V51.7679V51.8826V51.9975V52.1127V52.228V52.3435V52.4592V52.5751V52.6912V52.8075V52.9239V53.0406V53.1574V53.2744V53.3916V53.509V53.6265V53.7442V53.8621V53.9802V54.0984V54.2168V54.3354V54.4541V54.573V54.692V54.8112V54.9306V55.0501V55.1697V55.2895V55.4095V55.5296V55.6499V55.7703V55.8908V56.0115V56.1323V56.2533V56.3743V56.4956V56.6169V56.7384V56.86V56.9817V57.1036V57.2256V57.3477V57.4699V57.5922V57.7147V57.8372V57.9599V58.0827V58.2056V58.3286V58.4517V58.5749V58.6982V58.8216V58.9451V59.0687V59.1924V59.3162V59.44V59.564V59.688V59.8122V59.9364V60.0607V60.1851V60.3095V60.434V60.5586V60.6833V60.8081V60.9329V61.0578V61.1827V61.3077V61.4328V61.5579V61.6831V61.8084V61.9337V62.059V62.1844V62.3099V62.4354V62.5609V62.6865V62.8121V62.9378V63.0635V63.1893V63.3151V63.4409V63.5667V63.6926V63.8185V63.9444V64.0704V64.1964V64.3224V64.4484V64.5744V64.7005V64.8265V64.9526V65.0787V65.2048V65.3309V65.457V65.5831V65.7092V65.8353V65.9614V66.0875V66.2136V66.3397V66.4658V66.5919V66.7179V66.844V66.97V67.096V67.222V67.348V67.4739V67.5998V67.7257V67.8516V67.9774V68.1032V68.229V68.3547V68.4804V68.606V68.7316V68.8572V68.9827V69.1082V69.2336V69.359V69.4843V69.6095V69.7348V69.8599V69.985V70.11V70.235V70.3599V70.4848V70.6095V70.7342V70.8589V70.9834V71.1079V71.2323V71.3566V71.4809V71.605V71.7291V71.8531V71.977V72.1008V72.2245V72.3482V72.4717V72.5951V72.7185V72.8417V72.9649V73.0879V73.2108V73.3336V73.4564V73.579V73.7015V73.8238V73.9461V74.0682V74.1903V74.3122V74.4339V74.5556V74.6771V74.7985V74.9198V75.0409V75.1619V75.2828V75.4035V75.5241V75.6445V75.7648V75.885V76.005V76.1249V76.2446V76.3642V76.4836V76.6028V76.7219V76.8409V76.9596V77.0783V77.1967V77.315V77.4331V77.5511V77.6689V77.7865V77.9039V78.0211V78.1382V78.2551V78.3718V78.4884V78.6047V78.7209V78.8368V78.9526V79.0682V79.1836V79.2988V79.4138V79.5286V79.6432V79.7576V79.8717V79.9857V80.0995V80.2131V80.3264V80.4395V80.5525V80.6652V80.7777V80.8899V81.002V81.1138V81.2254V81.3367V81.3391C193.276 81.7448 192.493 82.5091 192.162 83.7288C191.664 83.5633 191.133 83.3499 190.664 83.0959C190.247 82.8698 189.929 82.6378 189.727 82.4187C189.528 82.2027 189.5 82.0668 189.5 82C189.5 81.4477 189.052 81 188.5 81C187.948 81 187.5 81.4477 187.5 82C187.5 82.7332 187.847 83.3307 188.257 83.775C188.554 84.0971 188.915 84.3734 189.29 84.609C189.253 84.6261 189.216 84.6435 189.179 84.6611C187.901 85.2754 186.604 86.2981 186.072 87.6286C185.866 88.1414 186.116 88.7234 186.629 88.9285C187.141 89.1336 187.723 88.8842 187.928 88.3714C188.196 87.7019 188.983 86.9746 190.046 86.4639C190.168 86.4049 190.291 86.3507 190.412 86.3013C190.116 86.7307 189.828 87.1969 189.562 87.679C188.728 89.1889 188 91.0393 188 92.5C188 93.0523 188.448 93.5 189 93.5C189.552 93.5 190 93.0523 190 92.5C190 91.5607 190.522 90.0778 191.313 88.646C191.662 88.0141 192.043 87.4293 192.413 86.9501C192.615 87.3772 192.876 87.7354 193.166 88.0275C194.282 89.153 195.996 88.7391 196.741 87.5751C196.799 87.4858 196.855 87.3921 196.908 87.2943C197.144 87.6941 197.371 88.1321 197.568 88.5922C198.107 89.8576 198.348 91.1437 198.038 92.2253C197.887 92.7563 198.194 93.3098 198.725 93.4615C199.256 93.6133 199.81 93.3058 199.962 92.7747C200.453 91.0563 200.026 89.2591 199.407 87.8078C199.182 87.2803 198.924 86.7793 198.655 86.3197C199.128 86.4155 199.608 86.5315 200.058 86.669C200.68 86.8586 201.199 87.0745 201.565 87.3047C201.954 87.5489 202.023 87.7142 202.03 87.7425C202.164 88.2783 202.707 88.6041 203.243 88.4701C203.778 88.3362 204.104 87.7933 203.97 87.2575C203.777 86.4858 203.184 85.9594 202.629 85.611C202.051 85.2484 201.345 84.9706 200.642 84.756C200.25 84.6366 199.845 84.5323 199.44 84.442C199.581 84.3375 199.718 84.2298 199.852 84.1191C200.327 83.7238 200.792 83.2532 201.112 82.7212C201.434 82.1845 201.656 81.5004 201.47 80.7575C201.336 80.2217 200.793 79.8959 200.257 80.0299C199.722 80.1638 199.396 80.7067 199.53 81.2425C199.544 81.2996 199.553 81.4322 199.397 81.6913C199.239 81.9551 198.96 82.2596 198.573 82.5809C198.173 82.9137 197.707 83.2237 197.254 83.4882C196.959 82.6154 196.45 81.9513 196 81.5274V81.4479V81.3367V81.2254V81.1138V81.002V80.8899V80.7777V80.6652V80.5525V80.4395V80.3264V80.2131V80.0995V79.9857V79.8717V79.7576V79.6432V79.5286V79.4138V79.2988V79.1836V79.0682V78.9526V78.8368V78.7209V78.6047V78.4884V78.3718V78.2551V78.1382V78.0211V77.9039V77.7865V77.6689V77.5511V77.4331V77.315V77.1967V77.0783V76.9596V76.8409V76.7219V76.6028V76.4836V76.3642V76.2446V76.1249V76.005V75.885V75.7648V75.6445V75.5241V75.4035V75.2828V75.1619V75.0409V74.9198V74.7985V74.6771V74.5556V74.4339V74.3122V74.1903V74.0682V73.9461V73.8238V73.7015V73.579V73.4564V73.3336V73.2108V73.0879V72.9649V72.8417V72.7185V72.5951V72.4717V72.3482V72.2245V72.1008V71.977V71.8531V71.7291V71.605V71.4809V71.3566V71.2323V71.1079V70.9834V70.8589V70.7342V70.6095V70.4848V70.3599V70.235V70.11V69.985V69.8599V69.7348V69.6095V69.4843V69.359V69.2336V69.1082V68.9827V68.8572V68.7316V68.606V68.4804V68.3547V68.229V68.1032V67.9774V67.8516V67.7257V67.5998V67.4739V67.348V67.222V67.096V66.97V66.844V66.7179V66.5919V66.4658V66.3397V66.2136V66.0875V65.9614V65.8353V65.7092V65.5831V65.457V65.3309V65.2048V65.0787V64.9526V64.8265V64.7005V64.5744V64.4484V64.3224V64.1964V64.0704V63.9444V63.8185V63.6926V63.5667V63.4409V63.3151V63.1893V63.0635V62.9378V62.8121V62.6865V62.5609V62.4354V62.3099V62.1844V62.059V61.9337V61.8084V61.6831V61.5579V61.4328V61.3077V61.1827V61.0578V60.9329V60.8081V60.6833V60.5586V60.434V60.3095V60.1851V60.0607V59.9364V59.8122V59.688V59.564V59.44V59.3162V59.1924V59.0687V58.9451V58.8216V58.6982V58.5749V58.4517V58.3286V58.2056V58.0827V57.9599V57.8372V57.7147V57.5922V57.4699V57.3477V57.2256V57.1036V56.9817V56.86V56.7384V56.6169V56.4956V56.3743V56.2533V56.1323V56.0115V55.8908V55.7703V55.6499V55.5296V55.4095V55.2895V55.1697V55.0501V54.9306V54.8112V54.692V54.573V54.4541V54.3354V54.2168V54.0984V53.9802V53.8621V53.7442V53.6265V53.509V53.3916V53.2744V53.1574V53.0406V52.9239V52.8075V52.6912V52.5751V52.4592V52.3435V52.228V52.1127V51.9975V51.8826V51.7679V51.6534V51.539V51.4249V51.311V51.1973V51.0838V50.9706V50.8575V50.7447V50.632V50.5196V50.4074V50.2955V50.1838V50.0723V49.961V49.8499V49.7391V49.6285V49.5182V49.4081V49.2982V49.1886V49.0792V48.9701V48.8612V48.7525V48.6441V48.536V48.4281V48.3204V48.2131V48.106V47.9991V47.8925V47.7862V47.6801V47.5743V47.4688V47.3635V47.2585V47.1538V47.0494V46.9453V46.8414V46.7378V46.6345V46.5315V46.4287V46.3263V46.2241V46.1223V46.0207V45.9194V45.8185V45.7178V45.6174V45.5174V45.4176V45.3182V45.219V45.1202V45.0217V44.9234V44.8256V44.728V44.6307V44.5338V44.4372V44.3409V44.2449V44.1493V44.054V43.959V43.8644V43.7701V43.6761V43.5825V43.4892V43.3963V43.3037V43.2114V43.1195V43.028V42.9368V42.8459V42.7554V42.6653V42.5755V42.4861V42.397V42.3083V42.22V42.132V42.0445V41.9572V41.8704V41.7839V41.6978V41.6121V41.5268V41.4418V41.3572V41.273V41.1892V41.1058V41.0228V40.9402V40.8579V40.7761V40.6947V40.6136V40.533V40.4527V40.3729V40.2935V40.2145V40.1359V40.0577V39.9799V39.9025V39.8256V39.749V39.6729V39.5972V39.522V39.4471V39.3727V39.2987V39.2252V39.1521V39.0794V39.0071V38.9353V38.864V38.793V38.7226V38.6525V38.5829V38.5138V38.4451V38.3769V38.3091V38.2418V38.1749V38.1085V38.0426V37.9771V37.9121V37.8475V37.7834V37.7198V37.6567V37.594V37.5318V37.4701V37.4089V37.3481V37.2879V37.2281V37.1688V37.11V37.0517V36.9939V36.9365V36.8797V36.8234V36.7675V36.7122V36.6573V36.603V36.5492V36.4959V36.4431V36.3908V36.339V36.2877V36.2369V36.1867V36.137V36.0878V36.0391V35.991V35.9434V35.8963V35.8497V35.8037V35.7582V35.7133V35.6689V35.625V35.5817V35.5389V35.4966V35.4549V35.4138V35.3732V35.3331V35.2937V35.2547V35.2163V35.1785V35.1413V35.1046V35.0684V35.0329V35H200H213.5ZM188.551 35H170.943C163.168 43.6964 164.359 53.665 166.464 59.0496C168.292 55.0802 171.345 49.8782 175.485 45.1419C179.028 41.0883 183.411 37.3265 188.551 35ZM168.33 35H153.239C150.512 36.4062 148.666 38.217 147.679 40.6944C146.69 43.1777 146.511 46.4611 147.383 50.9166L164.45 59.3686C162.356 53.6701 161.329 43.8625 168.33 35ZM149.542 35H115.5C115.422 35 115.346 35.0044 115.27 35.0131L139.684 47.1039L145.16 49.8157C144.548 45.8415 144.765 42.6047 145.821 39.9544C146.624 37.9371 147.89 36.319 149.542 35ZM113.5 37.1531V71.2041C114.701 70.5331 116.213 69.8338 117.86 69.3203C119.774 68.7238 121.949 68.3537 124.065 68.6315L113.5 37.1531ZM111.5 73.003L111.5 73.0141V89.998V90.002V97.4934V97.5077V135.488L111.5 135.503L111.5 135.515V172.98L111.5 173.003L111.5 173.018V174.308C111.5 175.008 111.134 175.657 110.535 176.02L49 213.227V58.1783C49 57.3122 49.5574 56.5446 50.3808 56.2765L111.5 36.3772V37V72.9876L111.5 73.003ZM113.514 173.235C113.63 174.229 114.475 175 115.5 175H228.5C228.95 175 229.366 174.851 229.7 174.6C229.646 174.528 229.601 174.448 229.567 174.36L213.814 133.5H135.639L113.514 173.235ZM113.5 127.484V97.9646C113.813 97.6973 114.123 97.4243 114.435 97.1492L114.435 97.149C115.994 95.7765 117.608 94.3547 119.888 93.353C122.647 92.1408 126.432 91.5485 132.192 92.8472L136.482 105.629C136.855 106.741 136.184 108.035 134.942 108.454C127.954 110.812 117.902 116.652 113.5 127.484ZM113.5 95.3033C114.98 94.0068 116.756 92.5449 119.084 91.522C121.718 90.3644 125.028 89.7628 129.48 90.3332C127.907 89.2233 126.005 88.2158 123.958 87.6799C120.636 86.8104 116.932 87.172 113.5 90.422V95.3033ZM113.5 87.8078C117.126 85.0961 121.012 84.8414 124.464 85.7451C126.874 86.3758 129.071 87.5665 130.852 88.8562L124.795 70.8082C122.819 70.2861 120.573 70.5697 118.455 71.2297C116.45 71.8548 114.661 72.7866 113.5 73.5337V87.8078ZM102 183.517V184.5C102 186.709 103.791 188.5 106 188.5H245C247.209 188.5 249 186.709 249 184.5V160.992C250.863 160.93 252.581 160.527 253.897 159.869C255.27 159.183 256.5 158.049 256.5 156.5C256.5 154.951 255.27 153.817 253.897 153.131C252.581 152.473 250.863 152.07 249 152.008V19C249 18.7836 248.93 18.5731 248.8 18.4L236.2 1.6C235.445 0.592778 234.259 0 233 0H118.793C117.693 0 116.641 0.453416 115.885 1.2535L99.773 18.3134C99.5977 18.499 99.5 18.7447 99.5 19V29.2087L95.625 27.7996V18.5C95.625 18.0518 95.3268 17.6583 94.8953 17.5372L88.6227 15.7765C87.8808 15.5682 87.0945 15.5787 86.3584 15.8067L11.8167 38.8905C10.1419 39.4092 9 40.9582 9 42.7115V101.54C7.97767 102.474 6.99906 103.878 6.09818 105.601C5.07688 107.554 4.11696 109.994 3.29058 112.806C1.63757 118.43 0.5 125.609 0.5 133.5C0.5 148.938 4.8578 159.333 9 164.129V223.124C9 224.98 10.277 226.592 12.0838 227.018L18.271 228.473C18.5021 228.528 18.745 228.498 18.9563 228.39L38.3541 218.442L48.2425 215.97C48.3394 215.946 48.432 215.907 48.5174 215.856L102 183.517ZM253.003 158.08C252.004 158.58 250.603 158.93 249 158.991V154.009C250.603 154.07 252.004 154.42 253.003 154.92C254.163 155.5 254.5 156.116 254.5 156.5C254.5 156.884 254.163 157.5 253.003 158.08ZM7.87057 106.527C8.24996 105.802 8.62868 105.168 9 104.625V160.793C5.71432 155.77 2.5 146.609 2.5 133.5C2.5 125.791 3.61243 118.803 5.20942 113.369C6.00804 110.652 6.92312 108.34 7.87057 106.527ZM27 216.158C27 218.3 28.6569 219.972 30.651 220.145L19.5 225.863V45.6724C19.5 44.8083 20.055 44.0419 20.876 43.7723L93.625 19.881V27.0723L91.8165 26.4146C90.9745 26.1085 90.0541 26.0938 89.2028 26.3731L29.7533 45.8725C28.1107 46.4113 27 47.9445 27 49.6733V216.158ZM17.5 45.6724V226.237L12.5419 225.071C11.6385 224.858 11 224.052 11 223.124V163.75V102V42.7115C11 41.8349 11.5709 41.0604 12.4084 40.801L86.95 17.7172C87.3181 17.6032 87.7112 17.5979 88.0822 17.7021L91.1918 18.5749L20.252 41.8721C18.61 42.4113 17.5 43.9442 17.5 45.6724ZM89.8262 28.2734C90.2518 28.1338 90.712 28.1412 91.133 28.2942L94.2833 29.4398L109.43 34.9478L49.7617 54.3748C48.1147 54.911 47 56.4462 47 58.1783V214.219L37.7575 216.53L31.4851 218.098C30.2228 218.414 29 217.459 29 216.158V49.6733C29 48.8089 29.5553 48.0423 30.3767 47.7729L89.8262 28.2734ZM34.8624 51.568C34.3477 51.3678 33.7682 51.6228 33.568 52.1376C33.3678 52.6523 33.6228 53.2318 34.1376 53.432L43.1376 56.932C43.6523 57.1322 44.2318 56.8772 44.432 56.3624C44.6322 55.8477 44.3772 55.2682 43.8624 55.068L34.8624 51.568ZM97 86C97 85.4477 96.5523 85 96 85C95.4477 85 95 85.4477 95 86V153.204C95 153.941 94.5944 154.619 93.9444 154.967L67.5278 169.119C67.0409 169.379 66.8577 169.985 67.1185 170.472C67.3793 170.959 67.9854 171.142 68.4722 170.881L94.8889 156.73C96.1887 156.033 97 154.678 97 153.204V86ZM139.324 49.1574L142.983 50.9693C139.077 52.0684 135.875 55.3711 134.621 59.8108C134.466 58.8909 134.411 57.8936 134.516 56.8647C134.777 54.3254 136.022 51.5262 139.324 49.1574ZM132.527 56.6603C132.45 57.4118 132.444 58.1473 132.494 58.8554L117.26 38.2304L137.326 48.168C134.16 50.7446 132.822 53.7897 132.527 56.6603ZM125.773 67.4364L116.969 41.202L132.952 62.8407C131.584 62.9785 130.22 63.5128 129.016 64.2825C127.771 65.0786 126.635 66.1637 125.773 67.4364ZM130.093 65.9675C131.582 65.0157 133.159 64.6263 134.461 64.8848L144.672 78.7081C142.505 79.1753 140.099 80.4065 137.981 82.1687C135.944 83.8633 134.097 86.1094 132.938 88.7842L126.641 70.0213C127.31 68.383 128.592 66.9273 130.093 65.9675ZM136.055 63.6756L145.68 76.7064C146.357 71.6327 148.896 68.0575 152.352 65.564C155.538 63.2661 159.473 61.9064 163.368 61.0648L146.24 52.5822C141.079 52.3531 136.206 56.9036 136.055 63.6756ZM194 85C194 83.9978 194.442 83.45 194.819 83.1807C195.14 83.5571 195.5 84.1847 195.5 85C195.5 85.6082 195.304 86.1118 195.057 86.4967C194.984 86.6111 194.878 86.6693 194.787 86.6834C194.706 86.6959 194.642 86.6756 194.586 86.6192C194.294 86.3249 194 85.8295 194 85ZM39 81C38.3345 81 37.5 81.717 37.5 83C37.5 84.283 38.3345 85 39 85C39.6655 85 40.5 84.283 40.5 83C40.5 81.717 39.6655 81 39 81ZM35.5 83C35.5 80.9693 36.904 79 39 79C41.096 79 42.5 80.9693 42.5 83C42.5 85.0307 41.096 87 39 87C36.904 87 35.5 85.0307 35.5 83ZM37.5 133C37.5 131.717 38.3345 131 39 131C39.6655 131 40.5 131.717 40.5 133C40.5 134.283 39.6655 135 39 135C38.3345 135 37.5 134.283 37.5 133ZM39 129C36.904 129 35.5 130.969 35.5 133C35.5 135.031 36.904 137 39 137C41.096 137 42.5 135.031 42.5 133C42.5 130.969 41.096 129 39 129ZM39 181C38.3345 181 37.5 181.717 37.5 183C37.5 184.283 38.3345 185 39 185C39.6655 185 40.5 184.283 40.5 183C40.5 181.717 39.6655 181 39 181ZM35.5 183C35.5 180.969 36.904 179 39 179C41.096 179 42.5 180.969 42.5 183C42.5 185.031 41.096 187 39 187C36.904 187 35.5 185.031 35.5 183ZM118.5 192.5C117.948 192.5 117.5 192.948 117.5 193.5C117.5 194.052 117.948 194.5 118.5 194.5H169C169.552 194.5 170 194.052 170 193.5C170 192.948 169.552 192.5 169 192.5H118.5ZM128.5 200C128.5 199.448 128.948 199 129.5 199H164.5C165.052 199 165.5 199.448 165.5 200C165.5 200.552 165.052 201 164.5 201H129.5C128.948 201 128.5 200.552 128.5 200ZM89.5 243.5C89.5 243.116 89.837 242.5 90.9975 241.92C92.0981 241.369 93.6886 241 95.5 241C97.3114 241 98.9019 241.369 100.003 241.92C101.163 242.5 101.5 243.116 101.5 243.5C101.5 243.884 101.163 244.5 100.003 245.08C98.9019 245.631 97.3114 246 95.5 246C93.6886 246 92.0981 245.631 90.9975 245.08C89.837 244.5 89.5 243.884 89.5 243.5ZM95.5 239C93.4454 239 91.5359 239.414 90.103 240.131C88.73 240.817 87.5 241.951 87.5 243.5C87.5 245.049 88.73 246.183 90.103 246.869C91.5359 247.586 93.4454 248 95.5 248C97.5546 248 99.4641 247.586 100.897 246.869C102.27 246.183 103.5 245.049 103.5 243.5C103.5 241.951 102.27 240.817 100.897 240.131C99.4641 239.414 97.5546 239 95.5 239ZM217.605 231.1C217.555 231.154 217.498 231.202 217.434 231.245C216.704 231.737 216.5 232.192 216.5 232.5C216.5 232.883 216.837 233.5 217.997 234.08C219.098 234.631 220.689 235 222.5 235C224.311 235 225.902 234.631 227.003 234.08C228.163 233.5 228.5 232.883 228.5 232.5C228.5 232.192 228.296 231.737 227.566 231.245C227.502 231.202 227.445 231.154 227.395 231.1C226.032 231.674 224.323 232 222.5 232C220.677 232 218.968 231.674 217.605 231.1ZM229.224 229.999C229.973 229.35 230.5 228.514 230.5 227.5C230.5 225.951 229.27 224.817 227.897 224.131C226.464 223.414 224.555 223 222.5 223C220.445 223 218.536 223.414 217.103 224.131C215.73 224.817 214.5 225.951 214.5 227.5C214.5 228.514 215.027 229.35 215.776 229.999C215.039 230.64 214.5 231.482 214.5 232.5C214.5 234.049 215.73 235.183 217.103 235.869C218.536 236.586 220.445 237 222.5 237C224.555 237 226.464 236.586 227.897 235.869C229.27 235.183 230.5 234.049 230.5 232.5C230.5 231.482 229.961 230.64 229.224 229.999ZM216.5 227.5C216.5 227.116 216.837 226.5 217.997 225.92C219.098 225.369 220.689 225 222.5 225C224.311 225 225.902 225.369 227.003 225.92C228.163 226.5 228.5 227.116 228.5 227.5C228.5 227.884 228.163 228.5 227.003 229.08C225.902 229.631 224.311 230 222.5 230C220.689 230 219.098 229.631 217.997 229.08C216.837 228.5 216.5 227.884 216.5 227.5ZM266.997 188.92C265.837 189.5 265.5 190.116 265.5 190.5C265.5 190.884 265.837 191.5 266.997 192.08C268.098 192.631 269.689 193 271.5 193C273.311 193 274.902 192.631 276.003 192.08C277.163 191.5 277.5 190.884 277.5 190.5C277.5 190.116 277.163 189.5 276.003 188.92C274.902 188.369 273.311 188 271.5 188C269.689 188 268.098 188.369 266.997 188.92ZM266.103 187.131C267.536 186.414 269.445 186 271.5 186C273.555 186 275.464 186.414 276.897 187.131C278.27 187.817 279.5 188.951 279.5 190.5C279.5 192.049 278.27 193.183 276.897 193.869C275.464 194.586 273.555 195 271.5 195C269.445 195 267.536 194.586 266.103 193.869C264.73 193.183 263.5 192.049 263.5 190.5C263.5 188.951 264.73 187.817 266.103 187.131ZM287.5 233.5C287.5 232.729 287.81 232.058 288.28 231.501C287.805 230.939 287.5 230.271 287.5 229.5C287.5 228.95 287.66 228.447 287.923 228.002C287.658 227.556 287.5 227.054 287.5 226.5C287.5 224.951 288.73 223.817 290.103 223.131C291.536 222.414 293.445 222 295.5 222C297.555 222 299.464 222.414 300.897 223.131C302.27 223.817 303.5 224.951 303.5 226.5C303.5 227.054 303.342 227.556 303.077 228.002C303.34 228.448 303.5 228.952 303.5 229.5C303.5 230.271 303.195 230.939 302.72 231.5C303.188 232.057 303.5 232.73 303.5 233.5C303.5 235.049 302.27 236.183 300.897 236.869C299.464 237.586 297.555 238 295.5 238C293.445 238 291.536 237.586 290.103 236.869C288.73 236.183 287.5 235.049 287.5 233.5ZM301.499 229.532C301.304 229.654 301.102 229.767 300.897 229.869C299.464 230.586 297.555 231 295.5 231C293.445 231 291.536 230.586 290.103 229.869C289.898 229.767 289.696 229.654 289.501 229.532C289.514 229.821 289.715 230.232 290.294 230.658C290.323 230.676 290.35 230.696 290.377 230.717C290.551 230.838 290.757 230.96 290.997 231.08C292.098 231.631 293.689 232 295.5 232C297.311 232 298.902 231.631 300.003 231.08C301.132 230.516 301.481 229.917 301.499 229.532ZM289.923 227.338C290.156 227.578 290.502 227.833 290.997 228.08C292.098 228.631 293.689 229 295.5 229C297.311 229 298.902 228.631 300.003 228.08C301.163 227.5 301.5 226.884 301.5 226.5C301.5 226.116 301.163 225.5 300.003 224.92C298.902 224.369 297.311 224 295.5 224C293.689 224 292.098 224.369 290.997 224.92C289.837 225.5 289.5 226.116 289.5 226.5C289.5 226.709 289.6 226.987 289.879 227.291C289.894 227.306 289.909 227.322 289.923 227.338ZM300.897 232.869C300.981 232.827 301.065 232.783 301.147 232.738C301.415 233.037 301.5 233.298 301.5 233.5C301.5 233.884 301.163 234.5 300.003 235.08C298.902 235.631 297.311 236 295.5 236C293.689 236 292.098 235.631 290.997 235.08C289.837 234.5 289.5 233.884 289.5 233.5C289.5 233.299 289.586 233.035 289.852 232.738C289.935 232.783 290.019 232.827 290.103 232.869C291.536 233.586 293.445 234 295.5 234C297.555 234 299.464 233.586 300.897 232.869ZM256.5 250.5C256.5 250.116 256.837 249.5 257.997 248.92C259.098 248.369 260.689 248 262.5 248C264.311 248 265.902 248.369 267.003 248.92C268.163 249.5 268.5 250.116 268.5 250.5C268.5 250.884 268.163 251.5 267.003 252.08C265.902 252.631 264.311 253 262.5 253C260.689 253 259.098 252.631 257.997 252.08C256.837 251.5 256.5 250.884 256.5 250.5ZM262.5 246C260.445 246 258.536 246.414 257.103 247.131C255.73 247.817 254.5 248.951 254.5 250.5C254.5 252.049 255.73 253.183 257.103 253.869C258.536 254.586 260.445 255 262.5 255C264.555 255 266.464 254.586 267.897 253.869C269.27 253.183 270.5 252.049 270.5 250.5C270.5 248.951 269.27 247.817 267.897 247.131C266.464 246.414 264.555 246 262.5 246Z"
          fill="currentColor"/>
</svg>
